<svg xmlns="http://www.w3.org/2000/svg" viewBox="0 0 22.207 29.002">
  <defs>
    <style>
      .cls-1 {
        fill: #052c48;
      }
    </style>
  </defs>
  <path id="Birthday" class="cls-1" d="M12.309,15.425c-1.644-.2-2.655-.564-2.831-.517s-.186.381-.034.574.154.153,1.613.363,3.615.4,3.677.381.044-.409.031-.533a15.152,15.152,0,0,0-2.456-.267ZM17.787,3.1c.344.041.792-.262.817-1.041S17.685-.067,17.477,0s-.177.586-.2,1.057-.548.625-.647,1.278.89.735,1.16.767Zm-.26-1.146c.265-.334.157-.587.276-.539a.682.682,0,0,1,.247.673c-.1.241-.222.665-.764.489C17.135,2.532,17.262,2.292,17.527,1.959ZM29.2,13.91c-.077-1.135-.942-2.09-3.655-2.867a21.416,21.416,0,0,0-6.118-.566s.015-5.879.018-5.94a6.129,6.129,0,0,0-1.258-.156c-.082.016.093-.9.036-.985s-.468-.027-.549-.032.008.924-.039,1.025-.7.164-.871.216.09,6.193.09,6.193c-2.176-.169-7.571.171-8.731,1.151s-1.153,2.255-1.1,5.178.139,5.353.19,5.87.51.728.585.856-.048,2.217,0,2.528S10.849,28.967,17.734,29s9.546-1.8,9.709-2.142-.035-1.5.165-1.429,1.192-.814,1.263-1.344.4-9.041.326-10.176ZM17.265,5.047a6.484,6.484,0,0,1,1.594-.009c.115.13.062,7.733.051,7.917a1.431,1.431,0,0,1-.722.821c-.29.065-.84.032-.779-.293s-.211-8.337-.144-8.436ZM8.717,26.232c.024-.06.925-1.858.925-1.858L10.564,24,9.358,26.8Zm-.188-.279.1-1.66c.1.006.566.116.566.116L8.53,25.953Zm1.374.965c.012-.209,2.743-7.116,2.743-7.116s.46.171.35,1.007-.437,2.606-.437,2.606-2.063,3.846-2.123,3.822-.539-.217-.533-.319Zm1.674-6.295a.858.858,0,0,1,.566-.6c.165-.032-.624,1.587-.624,1.587a4.829,4.829,0,0,1,.057-.983Zm-.859,6.692c.006-.1,1.731-3.063,1.82-3.182l.259.817-1.191,2.561s-.894-.094-.888-.2Zm2.183.417c-.082-.005-.791-.088-.787-.17s.93-1.939.978-2.059c0,0,.7.288.693.37a13.379,13.379,0,0,1-.884,1.859Zm1.092.208c-.1-.006-.707-.145-.707-.145a20.045,20.045,0,0,1,.929-1.918l.65.059a16.641,16.641,0,0,1-.872,2Zm.29-.065c-.043-.06,1.275-2.248,1.275-2.248s.624-.189.855-1.348l.23-1.158s1.732-3.434,1.793-3.431a4.393,4.393,0,0,1,.14,1.468c-.063.387-3.52,6.761-3.626,6.837a.852.852,0,0,1-.666-.121Zm2.233-7.844a1.575,1.575,0,0,1,1.477-.818,33.993,33.993,0,0,1-1.47,3.14A3.335,3.335,0,0,1,16.517,20.03Zm-1.006,8.143c.009-.143,2.278-4.369,2.452-4.543.091-.092-.074.571.01.864s.126.3.078.416-1.8,3.224-1.908,3.28-.64.127-.632-.017Zm1.065-.019a12.253,12.253,0,0,1,1.8-2.854c.16.051.741.249.741.249a28.448,28.448,0,0,1-1.253,2.558,2.031,2.031,0,0,1-1.29.048Zm3.177-.163a4.13,4.13,0,0,1-1.372.043,24.4,24.4,0,0,1,1.352-2.511,1.156,1.156,0,0,0,1.119-.613,7.706,7.706,0,0,0,.566-1.3s1.36-2.3,1.421-2.3a2.475,2.475,0,0,1,.068.929c-.048.121-3.03,5.722-3.154,5.755Zm1.786-6.822a.855.855,0,0,1,.873-.256,8.993,8.993,0,0,1-1.026,1.831,2.98,2.98,0,0,1,.153-1.574Zm-.2,6.669c-.209.091-.954.252-.9.07s1.95-3.668,2.017-3.746.2.752.338.863a10.607,10.607,0,0,1-1.451,2.813Zm1.425-.245c-.276.169-.877.318-.89.194a14.619,14.619,0,0,1,1.449-2.423c.056-.025.736,0,.666.141a11.968,11.968,0,0,1-1.225,2.086Zm.582-.172A11.4,11.4,0,0,1,24.4,25.468a1.091,1.091,0,0,0,.8-.8c.266-.7.329-2.139.486-2.376s.864-.443.536.627a37.806,37.806,0,0,1-1.958,4.49c-.127.1-.808.2-.92.008Zm2.977-.934a2.571,2.571,0,0,1-1.486.612c-.239-.006,1.2-2.335,1.276-2.269s.313.245.327.348a4.812,4.812,0,0,1-.117,1.31ZM27.984,23.5c-.229.789-.387,1.046-.509,1.039s-.6-.24-.554-.67.188-1.119.2-1.612.043-.737-.254-.9-1.775-.063-2.027.415a12.123,12.123,0,0,0-.287,2.471.539.539,0,0,1-.981,0c-.232-.569.462-2.687.242-3.46s-1.317-.9-2.191-.643a1.356,1.356,0,0,0-1.134,1.578c.009.9.092,2.287-.276,2.656s-1.387.639-1.2-.831.914-2.721.422-4.107a1.881,1.881,0,0,0-2.771-.842,2.7,2.7,0,0,0-1.24,2.7c.243,1.433.911,3.672-.976,3.787s-.571-3.878-.58-4.433.034-1.643-1.228-1.718a2.214,2.214,0,0,0-2.148,2.135c-.1,1.022-.2,2.414-1.362,2.346S8.2,22.131,8.3,20.451s-.565-5.4-.4-6.046.281-2.039,2.739-2.491A50.676,50.676,0,0,1,17,11.384a22.4,22.4,0,0,0-.045,2.547,2.016,2.016,0,0,0,1.921-.011c.6-.479.619-.457.633-.7s.092-1.948.092-1.948a21.166,21.166,0,0,1,4.878.451c1.767.515,3.468,1.5,3.544,2.305s.189,8.686-.041,9.474Z" transform="translate(-7.002 0)"/>
</svg>
