<svg xmlns="http://www.w3.org/2000/svg" viewBox="0 0 21.681 21.719">
  <defs>
    <style>
      .cls-1 {
        fill: #052c48;
        stroke: #052c48;
      }
    </style>
  </defs>
  <g id="engagement" transform="translate(0.21 0.019)">
    <path id="Path_3" data-name="Path 3" class="cls-1" d="M19.3,3.784a7.135,7.135,0,0,0-7.831-1.95l-.13-.39a.965.965,0,0,0-.552-.617.589.589,0,0,0-.52.13l-.1.1a.032.032,0,0,1-.032.032l.065-.292h0V.73c0-.032,0-.032-.032-.065h0c0-.032-.032-.032-.065-.032h-.065L8.874.6a.119.119,0,0,0-.1.032L7.346,1.8c-.032.032-.032.065-.065.1l-.227,1.17a.2.2,0,0,0,.032.13c.032.032.065.032.13.032h.39c-.032.032-.065.032-.1.065l-.1.1a.581.581,0,0,0-.227.487.958.958,0,0,0,.52.65l.357.195a7.245,7.245,0,0,0-.877,2.6v.032A6.69,6.69,0,0,0,2.765,8.983a6.918,6.918,0,1,0,8.9,10.592,7.067,7.067,0,0,0,2.4-4.289v-.032A6.806,6.806,0,0,0,18.1,13.922a7.009,7.009,0,0,0,2.827-4.809A7.177,7.177,0,0,0,19.3,3.784Zm-9.293-1.2-.195.162.13-.65Zm-.747-.975.552-.422-.26,1.3ZM9.3,2.679l-.812-.455L9,1.8ZM8.289,1.965l.032-.422.455.065Zm-.1.52L9,2.939H7.639ZM8.939.892h.682l-.487.39H9.1l-.552-.065ZM7.964,1.7l-.032.552h0l-.487.39.162-.617ZM9.231,3.232l-.195.162-.552-.162Zm1.982,15.856a6.278,6.278,0,0,1-8.838-.78,6.3,6.3,0,0,1,.78-8.838A6.35,6.35,0,0,1,7.476,8.008a6.276,6.276,0,0,1,5.881,5.166,6,6,0,0,1-.747-.13,5.2,5.2,0,0,0-1.17-2.307,5.642,5.642,0,0,0-2.6-1.722,5.23,5.23,0,0,0-1.4-.227h0V8.755h0a5.429,5.429,0,0,0-3.8,1.3,5.57,5.57,0,0,0-.682,7.863A5.634,5.634,0,0,0,7.249,19.9a5.549,5.549,0,0,0,5.491-4.711l.682.1A6.538,6.538,0,0,1,11.213,19.088Zm2.794-5.881A6.971,6.971,0,0,0,12.48,9.828,7.165,7.165,0,0,0,9.069,7.618V7.586A4.862,4.862,0,0,1,10.791,4.5a4.936,4.936,0,1,1,6.336,7.571A5.17,5.17,0,0,1,14.007,13.207Zm-2.144-.487a5.021,5.021,0,0,1-1.69-1.3A5.349,5.349,0,0,1,9.264,9.8a4.969,4.969,0,0,1,2.6,2.924ZM7.152,9.34a6.581,6.581,0,0,0,1.755,3.737,6.737,6.737,0,0,0,3.152,1.885v.032a4.788,4.788,0,0,1-1.722,3.054A4.936,4.936,0,1,1,4,10.478,5.263,5.263,0,0,1,7.152,9.34Zm13.094-.325a6.236,6.236,0,0,1-2.567,4.354,6.305,6.305,0,0,1-8.285-.715A6.029,6.029,0,0,1,7.8,9.405a2.838,2.838,0,0,1,.715.162,5.2,5.2,0,0,0,1.17,2.307A5.547,5.547,0,0,0,12.253,13.6h.032a4.92,4.92,0,0,0,1.2.227h.52a5.584,5.584,0,0,0,5.556-5.1,5.438,5.438,0,0,0-1.3-4.062,5.55,5.55,0,0,0-3.8-1.982,5.438,5.438,0,0,0-4.062,1.3,5.77,5.77,0,0,0-1.95,3.477c-.195-.032-.422-.065-.617-.1a6.469,6.469,0,0,1,.975-2.632.345.345,0,0,0,.032-.26c-.032-.1-.1-.13-.195-.162l-.617-.357a.71.71,0,0,1-.162-.1l.065-.032a.145.145,0,0,1,.162,0c.032,0,.032.032.065.032L9,4.109A.312.312,0,0,0,9.3,4.044l1.267-1.072a.262.262,0,0,0,.1-.292l-.1-.877c0-.032,0-.065-.032-.065a.143.143,0,0,1,.032-.162l.065-.032a.248.248,0,0,1,.065.162l.292.65a.333.333,0,0,0,.162.195.356.356,0,0,0,.26,0,6.53,6.53,0,0,1,7.408,1.657A6.266,6.266,0,0,1,20.246,9.015Z" transform="translate(0)"/>
  </g>
</svg>
