<svg xmlns="http://www.w3.org/2000/svg" viewBox="0 0 24.336 22.135">
  <defs>
    <style>
      .cls-1 {
        fill: #052c48;
        stroke: #052c48;
      }
    </style>
  </defs>
  <g id="wedding" transform="translate(-207.586 -333.087)">
    <g id="_605262032" transform="translate(208.22 333.595)">
      <path id="Path_4" data-name="Path 4" class="cls-1" d="M228.121,334.585a7.007,7.007,0,0,0-8.674,1.215,5.878,5.878,0,0,0-2.906-1.814,6.486,6.486,0,0,0-7.644,4.177,8.542,8.542,0,0,0,2.11,9.741c2.449,2.116,7.212,3.43,7.428,7.286a4.189,4.189,0,0,0-.315-1.894c1.1-2.5,4.6-3.122,6.866-4.1,2.887-1.252,5.515-3.578,6.206-6.768A7.586,7.586,0,0,0,228.121,334.585Zm2.042,7.644h0c-.574,2.776-2.819,4.9-5.244,6.188-2.227,1.178-5.966,2.135-6.817,4.843-.8-1.9-2.875-3.276-4.485-4.393-3.011-2.1-5.046-4.942-4.214-8.8.66-3.041,2.795-5.6,6.138-5.441a6.011,6.011,0,0,1,5.429,6.484,6.4,6.4,0,0,0-1.5-5.281,7.085,7.085,0,0,1,7.631-.864A6.868,6.868,0,0,1,230.163,342.229Z" transform="translate(-208.22 -333.595)"/>
      <path id="Path_5" data-name="Path 5" class="cls-1" d="M2857,969.076a3.692,3.692,0,0,1,.876,4.787C2860.239,973.042,2859.653,968.81,2857,969.076Z" transform="translate(-2840.659 -965.143)"/>
    </g>
  </g>
</svg>
